PathFileType	4	(X/Y/Z)	 2.8Hzlow3min.trc
DataRate	CameraRate	NumFrames	NumMarkers	Units	OrigDataRate	OrigDataStartFrame	OrigNumFrames
200	200	10	39	m	200	1	1000
Frame#	Time	C7			LSH			RSH			MAN			RASI			LASI			HIPR			HIPL			RPSI			LPSI			COX			RTHI1			RTHI2			RTHI3			RTHI4			RLKN			RMKN			RSHA1			RSHA2			RSHA3			RSHA4			RHEEL			RMET5			RMET1			RTOE			LTHI1			LTHI2			LTHI3			LTHI4			LLKN			LMKN			LSHA1			LSHA2			LSHA3			LSHA4			LHEEL			LMET5			LMET1			LTOE			
		X1	Y1	Z1	X2	Y2	Z2	X3	Y3	Z3	X4	Y4	Z4	X5	Y5	Z5	X6	Y6	Z6	X7	Y7	Z7	X8	Y8	Z8	X9	Y9	Z9	X10	Y10	Z10	X11	Y11	Z11	X12	Y12	Z12	X13	Y13	Z13	X14	Y14	Z14	X15	Y15	Z15	X16	Y16	Z16	X17	Y17	Z17	X18	Y18	Z18	X19	Y19	Z19	X20	Y20	Z20	X21	Y21	Z21	X22	Y22	Z22	X23	Y23	Z23	X24	Y24	Z24	X25	Y25	Z25	X26	Y26	Z26	X27	Y27	Z27	X28	Y28	Z28	X29	Y29	Z29	X30	Y30	Z30	X31	Y31	Z31	X32	Y32	Z32	X33	Y33	Z33	X34	Y34	Z34	X35	Y35	Z35	X36	Y36	Z36	X37	Y37	Z37	X38	Y38	Z38	X39	Y39	Z39	
1	0.0050	-0.300341	1.547075	-0.522849	-0.256772	1.529050	-0.717139	-0.244264	1.532490	-0.339992	-0.153639	1.501800	-0.535634	-0.153411	1.032199	-0.421049	-0.156174	1.041024	-0.658075	-0.229856	1.112995	-0.371388	-0.224475	1.127201	-0.696312	-0.328822	1.095207	-0.498189	-0.328867	1.100327	-0.575325	-0.329132	1.094702	-0.535780	-0.255459	0.857447	-0.346689	-0.244910	0.799222	-0.340633	-0.180427	0.809078	-0.338457	-0.183938	0.870082	-0.344964	-0.251300	0.523541	-0.364792	-0.220506	0.512893	-0.486457	-0.318310	0.372980	-0.349331	-0.337961	0.335670	-0.359392	-0.281252	0.313270	-0.360192	-0.265829	0.349798	-0.354903	-0.400776	0.140825	-0.433549	-0.259329	0.056567	-0.355489	-0.206192	0.065649	-0.415337	-0.180792	0.054783	-0.406034	-0.272915	0.838601	-0.729223	-0.249699	0.780712	-0.734464	-0.189344	0.801094	-0.745830	-0.203498	0.859813	-0.739944	-0.239568	0.543607	-0.721543	-0.216835	0.526923	-0.599370	-0.342711	0.334872	-0.724543	-0.356710	0.297615	-0.716348	-0.298022	0.279816	-0.730144	-0.291598	0.322769	-0.736717	-0.407455	0.137553	-0.654241	-0.268485	0.060125	-0.740418	-0.214946	0.070946	-0.685402	-0.188197	0.055439	-0.694931	
2	0.0100	-0.299942	1.546144	-0.523026	-0.255937	1.527928	-0.717287	-0.243795	1.531189	-0.339935	-0.153630	1.500543	-0.535826	-0.153565	1.031287	-0.421160	-0.156459	1.040083	-0.658087	-0.230182	1.111674	-0.371404	-0.225021	1.125933	-0.696323	-0.329285	1.093606	-0.498162	-0.329882	1.098974	-0.575056	-0.329737	1.093164	-0.535747	-0.254595	0.856264	-0.346316	-0.243990	0.798137	-0.340454	-0.179524	0.808105	-0.338793	-0.183254	0.869093	-0.345272	-0.250724	0.522692	-0.364764	-0.220118	0.512067	-0.486517	-0.317943	0.372091	-0.349486	-0.337613	0.334793	-0.359589	-0.280907	0.312400	-0.360172	-0.265465	0.348941	-0.354828	-0.400022	0.139359	-0.433492	-0.258063	0.056095	-0.355576	-0.204903	0.065660	-0.415285	-0.179300	0.054816	-0.406197	-0.271939	0.837210	-0.729975	-0.248626	0.779658	-0.735615	-0.188102	0.799917	-0.745718	-0.202444	0.858593	-0.740006	-0.239545	0.542729	-0.721625	-0.216566	0.525918	-0.599492	-0.342540	0.333856	-0.724351	-0.356491	0.296569	-0.716103	-0.297818	0.278860	-0.730004	-0.291430	0.321762	-0.736626	-0.406932	0.136048	-0.654344	-0.266933	0.059585	-0.739551	-0.213728	0.070898	-0.684347	-0.186774	0.055482	-0.693602	
3	0.0150	-0.299504	1.544918	-0.523204	-0.255200	1.526505	-0.717488	-0.243335	1.529727	-0.339901	-0.153436	1.499164	-0.535948	-0.153701	1.030123	-0.421301	-0.156726	1.038915	-0.658091	-0.230446	1.110096	-0.371389	-0.225535	1.124447	-0.696365	-0.329758	1.091700	-0.498132	-0.330321	1.097113	-0.575088	-0.330290	1.091316	-0.535747	-0.253830	0.854868	-0.346030	-0.243129	0.796808	-0.340282	-0.178712	0.806903	-0.339102	-0.182605	0.867896	-0.345553	-0.250173	0.521538	-0.364687	-0.219784	0.511005	-0.486571	-0.317529	0.370901	-0.349565	-0.337192	0.333569	-0.359746	-0.280486	0.311221	-0.360161	-0.265026	0.347771	-0.354779	-0.399296	0.137812	-0.433440	-0.256883	0.055219	-0.355795	-0.203709	0.065228	-0.415366	-0.177928	0.054343	-0.406488	-0.271105	0.835687	-0.730671	-0.247694	0.778371	-0.736515	-0.186996	0.798551	-0.745594	-0.201497	0.857189	-0.740063	-0.239491	0.541584	-0.721704	-0.216554	0.524821	-0.599506	-0.342181	0.332481	-0.724246	-0.356101	0.295188	-0.715924	-0.297402	0.277565	-0.729842	-0.291054	0.320428	-0.736556	-0.406353	0.134366	-0.654461	-0.265503	0.058566	-0.738711	-0.212508	0.070361	-0.683411	-0.185452	0.054967	-0.692406	
4	0.0200	-0.299077	1.543627	-0.523389	-0.254505	1.525009	-0.717707	-0.242878	1.528174	-0.339869	-0.153245	1.497698	-0.536074	-0.153835	1.028878	-0.421451	-0.156993	1.037670	-0.658094	-0.230694	1.108448	-0.371372	-0.226031	1.122888	-0.696406	-0.330239	1.089709	-0.498103	-0.330787	1.095176	-0.575108	-0.330842	1.089372	-0.535744	-0.253080	0.853403	-0.345744	-0.242296	0.795427	-0.340124	-0.177919	0.805637	-0.339397	-0.181972	0.866636	-0.345824	-0.249617	0.520311	-0.364605	-0.219441	0.509864	-0.486620	-0.317085	0.369627	-0.349630	-0.336741	0.332274	-0.359880	-0.280034	0.309964	-0.360156	-0.264562	0.346521	-0.354734	-0.398595	0.136247	-0.433405	-0.255762	0.054215	-0.356047	-0.202555	0.064665	-0.415471	-0.176617	0.053712	-0.406801	-0.270312	0.834112	-0.731336	-0.246801	0.777002	-0.737314	-0.185950	0.797123	-0.745470	-0.200596	0.855728	-0.740117	-0.239411	0.540353	-0.721784	-0.216578	0.523673	-0.599506	-0.341775	0.331024	-0.724173	-0.355664	0.293724	-0.715780	-0.296936	0.276185	-0.729679	-0.290624	0.319006	-0.736485	-0.405761	0.132650	-0.654528	-0.264140	0.057426	-0.737892	-0.211330	0.069677	-0.682514	-0.184181	0.054299	-0.691264	
5	0.0250	-0.298648	1.542116	-0.523581	-0.253894	1.523272	-0.717962	-0.242431	1.526441	-0.339854	-0.152977	1.496051	-0.536174	-0.153963	1.027411	-0.421625	-0.157254	1.036215	-0.658095	-0.230891	1.106589	-0.371342	-0.226496	1.121123	-0.696458	-0.330734	1.087470	-0.498079	-0.331069	1.092923	-0.575226	-0.331395	1.087175	-0.535756	-0.252401	0.851751	-0.345505	-0.241527	0.793848	-0.339979	-0.177192	0.804170	-0.339652	-0.181375	0.865186	-0.346066	-0.249038	0.518834	-0.364483	-0.219105	0.508505	-0.486662	-0.316574	0.368104	-0.349633	-0.336222	0.330719	-0.359962	-0.279509	0.308456	-0.360158	-0.264030	0.345021	-0.354701	-0.397949	0.134611	-0.433393	-0.254765	0.052855	-0.356401	-0.201514	0.063723	-0.415670	-0.175451	0.052643	-0.407206	-0.269640	0.832410	-0.731924	-0.246029	0.775431	-0.737899	-0.185045	0.795530	-0.745340	-0.199809	0.854111	-0.740166	-0.239273	0.538890	-0.721870	-0.216746	0.522408	-0.599445	-0.341228	0.329298	-0.724177	-0.355099	0.292000	-0.715710	-0.296319	0.274541	-0.729511	-0.290036	0.317320	-0.736421	-0.405129	0.130810	-0.654547	-0.262929	0.055903	-0.737119	-0.210214	0.068572	-0.681727	-0.183031	0.053167	-0.690255	
6	0.0300	-0.298250	1.540435	-0.523794	-0.253354	1.521319	-0.718246	-0.241995	1.524475	-0.339851	-0.152718	1.494171	-0.536286	-0.154088	1.025712	-0.421817	-0.157524	1.034547	-0.658094	-0.231045	1.104542	-0.371309	-0.226927	1.119148	-0.696506	-0.331259	1.085016	-0.498061	-0.331456	1.090474	-0.575293	-0.331994	1.084759	-0.535774	-0.251791	0.849949	-0.345327	-0.240837	0.792107	-0.339876	-0.176532	0.802540	-0.339873	-0.180831	0.863559	-0.346279	-0.248419	0.517150	-0.364337	-0.218731	0.506928	-0.486696	-0.315979	0.366378	-0.349589	-0.335629	0.328994	-0.359991	-0.278905	0.306730	-0.360168	-0.263430	0.343302	-0.354681	-0.397379	0.132918	-0.433414	-0.253926	0.051156	-0.356846	-0.200606	0.062426	-0.415954	-0.174459	0.051157	-0.407694	-0.269082	0.830563	-0.732413	-0.245370	0.773671	-0.738311	-0.184299	0.793767	-0.745218	-0.199164	0.852331	-0.740194	-0.239049	0.537194	-0.721966	-0.216983	0.520995	-0.599356	-0.340569	0.327351	-0.724249	-0.354423	0.290068	-0.715720	-0.295580	0.272664	-0.729359	-0.289326	0.315408	-0.736363	-0.404484	0.128884	-0.654457	-0.261911	0.054058	-0.736410	-0.209227	0.067074	-0.681055	-0.182036	0.051626	-0.689386	
7	0.0350	-0.297871	1.538515	-0.524021	-0.252865	1.519118	-0.718548	-0.241571	1.522282	-0.339867	-0.152439	1.492036	-0.536397	-0.154233	1.023767	-0.422029	-0.157803	1.032632	-0.658095	-0.231161	1.102281	-0.371274	-0.227326	1.116955	-0.696561	-0.331806	1.082312	-0.498055	-0.331841	1.087762	-0.575382	-0.332589	1.082058	-0.535796	-0.251267	0.847974	-0.345214	-0.240227	0.790164	-0.339815	-0.175949	0.800701	-0.340055	-0.180346	0.861719	-0.346455	-0.247733	0.515222	-0.364179	-0.218302	0.505099	-0.486718	-0.315294	0.364409	-0.349500	-0.334959	0.327044	-0.359947	-0.278232	0.304759	-0.360191	-0.262751	0.341331	-0.354670	-0.396910	0.131131	-0.433463	-0.253275	0.049113	-0.357360	-0.199850	0.060773	-0.416355	-0.173658	0.049266	-0.408307	-0.268649	0.828543	-0.732791	-0.244849	0.771696	-0.738569	-0.183724	0.791809	-0.745116	-0.198668	0.850366	-0.740222	-0.238716	0.535235	-0.722085	-0.217264	0.519395	-0.599253	-0.339807	0.325170	-0.724394	-0.353658	0.287907	-0.715811	-0.294745	0.270535	-0.729217	-0.288504	0.313251	-0.736316	-0.403858	0.126845	-0.654293	-0.261112	0.051924	-0.735848	-0.208373	0.065181	-0.680482	-0.181206	0.049674	-0.688649	
8	0.0400	-0.297506	1.536364	-0.524252	-0.252430	1.516673	-0.718858	-0.241164	1.519860	-0.339902	-0.152163	1.489629	-0.536515	-0.154408	1.021582	-0.422252	-0.158100	1.030470	-0.658099	-0.231246	1.099818	-0.371244	-0.227695	1.114543	-0.696620	-0.332374	1.079377	-0.498067	-0.332313	1.084830	-0.575448	-0.333218	1.079112	-0.535830	-0.250826	0.845805	-0.345170	-0.239700	0.788009	-0.339804	-0.175437	0.798658	-0.340199	-0.179934	0.859670	-0.346598	-0.246945	0.513051	-0.364009	-0.217786	0.503014	-0.486727	-0.314522	0.362214	-0.349370	-0.334224	0.324884	-0.359828	-0.277510	0.302555	-0.360217	-0.261999	0.339114	-0.354676	-0.396581	0.129211	-0.433513	-0.252819	0.046853	-0.357828	-0.199254	0.058867	-0.416911	-0.173034	0.047134	-0.409104	-0.268342	0.826338	-0.733054	-0.244457	0.769502	-0.738684	-0.183315	0.789654	-0.745047	-0.198321	0.848202	-0.740249	-0.238248	0.533024	-0.722235	-0.217528	0.517572	-0.599162	-0.338986	0.322801	-0.724603	-0.352856	0.285558	-0.715968	-0.293883	0.268189	-0.729092	-0.287623	0.310864	-0.736279	-0.403320	0.124694	-0.654094	-0.260523	0.049632	-0.735519	-0.207654	0.063020	-0.679948	-0.180508	0.047483	-0.687951	
9	0.0450	-0.297158	1.533985	-0.524484	-0.252007	1.513978	-0.719159	-0.240774	1.517228	-0.339960	-0.151894	1.486952	-0.536643	-0.154622	1.019161	-0.422482	-0.158419	1.028062	-0.658108	-0.231311	1.097167	-0.371223	-0.228041	1.111912	-0.696682	-0.332968	1.076232	-0.498097	-0.332874	1.081692	-0.575490	-0.333885	1.075941	-0.535878	-0.250468	0.843426	-0.345205	-0.239245	0.785620	-0.339844	-0.174996	0.796401	-0.340308	-0.179596	0.857391	-0.346707	-0.246025	0.510630	-0.363828	-0.217165	0.500672	-0.486722	-0.313673	0.359823	-0.349201	-0.333455	0.322543	-0.359652	-0.276773	0.300115	-0.360246	-0.261198	0.336657	-0.354696	-0.396454	0.127139	-0.433565	-0.252538	0.044525	-0.358146	-0.198822	0.056862	-0.417620	-0.172552	0.044936	-0.410090	-0.268148	0.823932	-0.733195	-0.244191	0.767110	-0.738746	-0.183056	0.787297	-0.745018	-0.198120	0.845842	-0.740272	-0.237630	0.530563	-0.722432	-0.217709	0.515502	-0.599115	-0.338170	0.320271	-0.724843	-0.352087	0.283053	-0.716157	-0.293062	0.265638	-0.728984	-0.286756	0.308274	-0.736257	-0.402954	0.122387	-0.653891	-0.260090	0.047332	-0.735457	-0.207061	0.060770	-0.679414	-0.179903	0.045226	-0.687207	
10	0.0500	-0.296819	1.531359	-0.524713	-0.251594	1.511040	-0.719449	-0.240400	1.514378	-0.340040	-0.151622	1.484019	-0.536774	-0.154879	1.016514	-0.422708	-0.158765	1.025415	-0.658119	-0.231375	1.094340	-0.371208	-0.228369	1.109089	-0.696760	-0.333581	1.072891	-0.498142	-0.333421	1.078332	-0.575562	-0.334533	1.072533	-0.535939	-0.250189	0.840821	-0.345315	-0.238852	0.783000	-0.339941	-0.174624	0.793929	-0.340398	-0.179336	0.854888	-0.346792	-0.244975	0.507971	-0.363661	-0.216424	0.498076	-0.486695	-0.312784	0.357246	-0.349022	-0.332682	0.320031	-0.359436	-0.276061	0.297458	-0.360288	-0.260378	0.333965	-0.354746	-0.396560	0.124882	-0.433600	-0.252407	0.042287	-0.358225	-0.198537	0.054912	-0.418413	-0.172187	0.042870	-0.411196	-0.268054	0.821302	-0.733232	-0.244036	0.764500	-0.738766	-0.182925	0.784730	-0.745038	-0.198045	0.843267	-0.740300	-0.236846	0.527854	-0.722682	-0.217757	0.513166	-0.599135	-0.337434	0.317618	-0.725085	-0.351431	0.280445	-0.716339	-0.292378	0.262904	-0.728875	-0.285988	0.305508	-0.736245	-0.402860	0.119915	-0.653732	-0.259766	0.045196	-0.735675	-0.206590	0.058603	-0.678836	-0.179375	0.043105	-0.686359	
